<svg id="Ebene_1" data-name="Ebene 1" xmlns="http://www.w3.org/2000/svg" viewBox="0 0 1294 249.16"><defs><style>.cls-1{fill:#ff6f47;}</style></defs><path class="cls-1" d="M228,7.16c4.47,1,9.1,1.6,13.38,3.12a64.54,64.54,0,0,1,13.89,6.58c7.25,4.8,10.78,11.84,10.77,20.76q-.12,89.73.06,179.47c0,11.72-4.94,20.07-15,24.92-6.18,3-13.22,4.18-19.88,6.14-1.38.41-2.8.68-4.2,1H39c-1.41-.34-2.8-.75-4.23-1C18.85,245.27,5,239.58,0,222.16v-186C1.35,30,3,24.06,7.94,19.58A43.21,43.21,0,0,1,29,9.19c3.66-.74,7.35-1.36,11-2Zm-199.41,156h-.08q0,24,0,48c0,6.84,3.34,11.71,9.21,14.9,10.36,5.61,23.12,1,27.29-10.85a70.55,70.55,0,0,0,3.65-21.46c.47-20.48-.22-41,.34-61.45.24-8.7,1.1-17.83,4-25.94C87.45,65.56,145.8,53.17,177.23,83.82c10.62,10.34,19.06,22,19.54,37.55.6,19.3.79,38.62,1,57.93.14,10.32-.13,20.65.09,31,.18,8.43,5.87,15.86,13.32,18.1,7,2.12,15-.93,20.08-7.78,5-6.67,6.88-14.3,6.86-22.51,0-21.14-.14-42.28-.16-63.42,0-23.73-5.38-45.9-19.45-65.38-32.14-44.49-98.36-56-144.81-24.67-26.69,18-43.23,42.69-45,75.58C27.94,134.48,28.59,148.83,28.59,163.15Z"/><path class="cls-1" d="M1294,70.16c-2.15.17-4.29.48-6.44.48q-28.74.06-57.49,0h-6.56V231.11h-45.35V70.72H1107.4V24.59c1.63-.09,3.21-.26,4.8-.26q88.24,0,176.47,0a35,35,0,0,1,5.33.8Z"/><path class="cls-1" d="M392.66,234.2c-54.79-.46-99.9-40.88-105.44-95-5.05-49.33,28.1-96.14,77.53-109.49,55.72-15,112.88,15.55,129.83,69.52,18.34,58.37-18.28,119.83-78.71,131.86C408.23,232.64,400.4,233.2,392.66,234.2ZM328.51,129.64c.18,36.15,28.82,63.87,65.62,63.51,35.8-.35,64.16-29,63.87-64.42-.28-34.29-30.08-62.64-65.58-62.4C357.14,66.56,328.34,95.1,328.51,129.64Z"/><path class="cls-1" d="M638.53,233.66c-59.33,0-106.25-46-106-103.88.21-58.15,47-103.85,106.19-103.79,59,.06,105.53,46.19,105.48,104.48C744.11,187.9,697.24,233.69,638.53,233.66ZM638.06,193c35.9,0,65.47-28.26,65.77-62.87.29-34.26-30.06-63.77-65.62-63.79s-64.93,28.84-65,63.64C573.07,164.4,602.5,193,638.06,193Z"/><path class="cls-1" d="M864.8,157.89l-76.62,77.44-32.49-30.2,76.57-74.32-77.9-75.22,33.26-30,73.7,75.77,76.29-78.72,29.62,33.14-72.92,74L971,204.24l-33.32,29.52Z"/><path class="cls-1" d="M1068.74,230.94h-41V87.7h41Z"/><path class="cls-1" d="M1050.93,70.43H1005.3V24.56h45.63Z"/></svg>